
nColumns=19
nRows=107
DataType=double
version=3
OpenSimVersion=4.4-2022-10-11-798caa840
endheader
time	ground_force_calcn_r_vx	ground_force_calcn_r_vy	ground_force_calcn_r_vz	ground_force_calcn_r_px	ground_force_calcn_r_py	ground_force_calcn_r_pz	ground_force_calcn_r_mx	ground_force_calcn_r_my	ground_force_calcn_r_mz	ground_force_calcn_l_vx	ground_force_calcn_l_vy	ground_force_calcn_l_vz	ground_force_calcn_l_px	ground_force_calcn_l_py	ground_force_calcn_l_pz	ground_force_calcn_l_mx	ground_force_calcn_l_my	ground_force_calcn_l_mz
1.94	-31.5397	38.1525	-8.58437	-0.0558862	0	-0.375771	-0.0334533	0.0404673	-0.009105200000000001	0	0	0	0	0	0	0	0	0
1.95	-220.086	338.813	-60.9359	-0.0970941	0	-0.374683	-0.582915	0.897374	-0.161394	-54.822	62.2119	9.882989999999999	-0.0501942	0	-0.709889	0.484663	-0.549994	-0.0873722
1.96	-238.249	691.5650000000001	-112.169	-0.136215	0	-0.38018	-1.45674	4.22848	-0.68584	-213.082	288.063	34.1614	-0.0831206	0	-0.733455	0.0864207	-0.116831	-0.013855
1.97	-39.0581	1312.47	-119.327	-0.193247	0	-0.392185	-0.0485014	1.62979	-0.148177	-188.075	432.857	66.7894	-0.114395	0	-0.733214	0.251183	-0.578101	-0.0892004
1.98	-10.4172	1696.04	-58.3426	-0.210249	0	-0.400716	0.0365788	-5.95547	0.204864	-40.0443	675.548	69.8489	-0.168231	0	-0.726262	-0.121638	2.05203	0.212172
1.99	-198.494	1218.42	-41.3364	-0.189569	0	-0.399225	1.33825	-8.21463	0.278691	-7.53731	830.874	37.4583	-0.187937	0	-0.719245	-0.0442308	4.87578	0.219815
2	-340.249	778.423	-72.18519999999999	-0.146519	0	-0.390366	2.20323	-5.04057	0.467425	-127.637	646.98	30.5589	-0.167579	0	-0.718382	-0.912259	4.62415	0.218413
2.01	-301.59	677.434	-86.1144	-0.132583	0	-0.387211	1.27702	-2.86844	0.364633	-234.846	469.908	26.8085	-0.127373	0	-0.718594	-1.40717	2.81564	0.160634
2.02	-221.726	781.357	-99.11	-0.149099	0	-0.389671	0.691534	-2.43695	0.309111	-233.297	427.085	10.3378	-0.112665	0	-0.715672	-1.70263	3.11692	0.0754466
2.03	-156.583	941.424	-96.0988	-0.16669	0	-0.393721	0.622688	-3.74378	0.382158	-179.385	475.85	9.43815	-0.125545	0	-0.713486	-1.5434	4.09415	0.0812046
2.04	-88.8884	1016.52	-85.05710000000001	-0.17662	0	-0.396448	0.417234	-4.77144	0.39925	-130.798	570.377	33.736	-0.142284	0	-0.713984	-0.970325	4.23135	0.250271
2.05	-50.3267	1006.08	-83.8553	-0.17991	0	-0.397007	0.230865	-4.61521	0.384671	-103.506	645.005	55.2009	-0.150882	0	-0.714673	-0.728287	4.53837	0.388403
2.06	-54.685	951.062	-85.6538	-0.177915	0	-0.396035	0.235013	-4.08727	0.368105	-98.99809999999999	643.379	66.62690000000001	-0.149226	0	-0.71517	-0.814029	5.2903	0.547851
2.07	-65.92829999999999	879.721	-84.8664	-0.17364	0	-0.394656	0.28062	-3.74448	0.361228	-111.943	613.605	69.9615	-0.143023	0	-0.715561	-1.20353	6.59706	0.752178
2.08	-60.6587	833.069	-83.6803	-0.170169	0	-0.393855	0.255566	-3.50988	0.352561	-121.313	610.972	69.0724	-0.140249	0	-0.715485	-1.6163	8.140230000000001	0.920281
2.09	-49.2203	825.163	-85.53749999999999	-0.167532	0	-0.39351	0.194577	-3.26203	0.338146	-111.272	626.1799999999999	74.0733	-0.141458	0	-0.715426	-1.58789	8.93582	1.05705
2.1	-39.2483	837.552	-89.9241	-0.164956	0	-0.393309	0.136649	-2.91607	0.313084	-93.44759999999999	632.9160000000001	83.572	-0.142276	0	-0.715897	-1.33422	9.03661	1.19322
2.11	-29.4971	849.528	-91.4188	-0.162011	0	-0.393188	0.0961158	-2.76817	0.297887	-82.9134	620.2380000000001	87.0483	-0.140114	0	-0.716438	-1.23183	9.21475	1.29326
2.12	-24.0872	843.853	-89.2054	-0.157554	0	-0.393056	0.0856687	-3.00126	0.317269	-77.6639	594.824	82.0095	-0.135659	0	-0.716384	-1.26414	9.68197	1.33487
2.13	-25.4715	814.796	-85.392	-0.151221	0	-0.392827	0.103603	-3.3141	0.347323	-73.37139999999999	570.654	74.7984	-0.1311	0	-0.715934	-1.30678	10.1636	1.33219
2.14	-31.9277	773.374	-82.5112	-0.143736	0	-0.392577	0.138256	-3.34892	0.357296	-70.64830000000001	558.322	70.9479	-0.127701	0	-0.71554	-1.33074	10.5167	1.33639
2.15	-38.5425	737.0069999999999	-82.05	-0.136919	0	-0.392602	0.157241	-3.00676	0.334738	-66.6461	556.2670000000001	70.128	-0.126056	0	-0.715172	-1.3	10.8505	1.36791
2.16	-40.1006	718.447	-82.5688	-0.132677	0	-0.393073	0.155103	-2.77884	0.319364	-60.787	556.895	70.8693	-0.12506	0	-0.714902	-1.21527	11.1336	1.41684
2.17	-35.8641	718.477	-82.11620000000001	-0.131207	0	-0.39412	0.152523	-3.05555	0.349225	-54.7577	555.808	73.1238	-0.124199	0	-0.71478	-1.1008	11.1734	1.47001
2.18	-27.2808	729.962	-80.36	-0.131344	0	-0.3955	0.138344	-3.70171	0.407513	-48.7868	552.728	76.6374	-0.123324	0	-0.714937	-0.964075	10.9224	1.51443
2.19	-18.5611	744.8390000000001	-78.9645	-0.13142	0	-0.39664	0.105816	-4.24631	0.450174	-42.7313	550.6849999999999	80.3584	-0.122431	0	-0.715039	-0.823369	10.6109	1.54839
2.2	-16.2394	752.187	-79.4834	-0.129316	0	-0.397177	0.09285939999999999	-4.30111	0.454497	-37.5608	552.938	83.2093	-0.1212	0	-0.714917	-0.712483	10.4886	1.57838
2.21	-22.8572	743.542	-80.5391	-0.12462	0	-0.397403	0.12052	-3.92049	0.424661	-36.5335	554.1660000000001	84.3871	-0.118407	0	-0.714811	-0.678427	10.2909	1.56707
2.22	-34.283	721.0599999999999	-79.83540000000001	-0.118581	0	-0.397827	0.158158	-3.32649	0.368307	-41.1124	546.263	83.7577	-0.113465	0	-0.714616	-0.733298	9.743370000000001	1.49394
2.23	-45.1201	694.138	-76.5027	-0.112942	0	-0.398853	0.185793	-2.85827	0.315018	-47.7351	532.878	80.3613	-0.107879	0	-0.713903	-0.823705	9.195209999999999	1.3867
2.24	-52.9188	668.697	-71.2633	-0.108563	0	-0.400278	0.213065	-2.69235	0.286925	-52.7882	519.504	74.0181	-0.103088	0	-0.71263	-0.90646	8.92074	1.27101
2.25	-56.9197	645.466	-66.794	-0.10509	0	-0.401629	0.230199	-2.61044	0.270133	-54.8944	507.122	67.33320000000001	-0.0992116	0	-0.711302	-0.949302	8.769769999999999	1.16441
2.26	-57.5389	625.807	-64.1079	-0.102172	0	-0.40273	0.224957	-2.44668	0.250639	-54.1788	497.479	62.5735	-0.09631190000000001	0	-0.710283	-0.936185	8.5962	1.08124
2.27	-57.5906	610.672	-62.1012	-0.09971289999999999	0	-0.403668	0.219616	-2.32873	0.236816	-51.5286	492.132	60.3793	-0.0943653	0	-0.709514	-0.874682	8.3538	1.02492
2.28	-57.5932	598.929	-60.1677	-0.09771870000000001	0	-0.404438	0.224023	-2.32968	0.234038	-47.5223	490.789	61.2253	-0.0933652	0	-0.709216	-0.7677040000000001	7.92851	0.989071
2.29	-56.6381	589.645	-58.6145	-0.09615460000000001	0	-0.40501	0.230154	-2.39608	0.238186	-42.6562	493.51	65.5455	-0.0933232	0	-0.7095669999999999	-0.623994	7.21929	0.958829
2.3	-55.9805	582.372	-57.8555	-0.0949636	0	-0.405352	0.243114	-2.52915	0.251257	-38.5324	498.753	71.0915	-0.0939174	0	-0.71034	-0.499021	6.4592	0.920685
2.31	-56.146	575.386	-58.0921	-0.0939292	0	-0.405491	0.257348	-2.63732	0.266268	-36.9342	504.233	74.6416	-0.09449349999999999	0	-0.711157	-0.434142	5.927	0.877374
2.32	-57.1734	568.124	-59.4147	-0.0930235	0	-0.405533	0.270281	-2.68574	0.280877	-37.4332	509.107	75.3785	-0.0949078	0	-0.7117560000000001	-0.415912	5.65658	0.837514
2.33	-58.3174	561.502	-61.7018	-0.0922837	0	-0.405384	0.278582	-2.6823	0.294749	-38.7664	513.492	74.1782	-0.0950462	0	-0.711968	-0.418973	5.54963	0.80169
2.34	-58.1144	557.25	-64.5219	-0.0918716	0	-0.4051	0.279262	-2.6778	0.310052	-40.4493	517.971	72.845	-0.0948523	0	-0.7118640000000001	-0.422488	5.41015	0.760856
2.35	-56.9124	556.532	-68.0461	-0.0918422	0	-0.404634	0.272706	-2.66673	0.326056	-40.8481	523.463	73.6356	-0.0947964	0	-0.711907	-0.395412	5.06715	0.712796
2.36	-54.7011	558.213	-72.49809999999999	-0.0921452	0	-0.403879	0.256176	-2.61422	0.339523	-38.9096	531.1079999999999	76.3158	-0.0951335	0	-0.7122849999999999	-0.333105	4.54682	0.653339
2.37	-52.6564	562.126	-77.5852	-0.09274	0	-0.402846	0.241539	-2.57852	0.35589	-37.2072	542.525	80.7877	-0.09564309999999999	0	-0.713051	-0.259517	3.78407	0.563488
2.38	-51.6367	567.533	-82.2766	-0.0934787	0	-0.40186	0.233908	-2.57086	0.372703	-35.6617	554.899	86.6366	-0.0963412	0	-0.714063	-0.180635	2.81069	0.438835
2.39	-50.5106	573.859	-85.2444	-0.0943997	0	-0.400891	0.236944	-2.69196	0.399879	-34.2399	564.837	91.4834	-0.0968107	0	-0.715024	-0.112996	1.86403	0.301905
2.4	-50.5379	579.028	-86.1203	-0.095085	0	-0.399885	0.253722	-2.90697	0.432362	-35.3594	570.652	93.25369999999999	-0.0962794	0	-0.715805	-0.0604177	0.975058	0.15934
2.41	-53.2829	581.044	-85.38039999999999	-0.0952703	0	-0.398854	0.281601	-3.07083	0.451238	-40.1828	570.785	91.9041	-0.0947326	0	-0.71627	-0.00424779	0.0603387	0.009715329999999999
2.42	-57.9417	578.721	-83.3068	-0.0950318	0	-0.39787	0.305758	-3.05391	0.439609	-45.9167	563.476	88.2542	-0.09258710000000001	0	-0.716423	0.0715088	-0.877534	-0.137443
2.43	-62.4235	569.559	-80.0305	-0.09447700000000001	0	-0.396832	0.313049	-2.8563	0.401347	-50.2877	547.891	82.98650000000001	-0.0900142	0	-0.716349	0.165677	-1.80507	-0.273405
2.44	-64.75530000000001	550.5549999999999	-75.14279999999999	-0.0936114	0	-0.395663	0.292351	-2.48559	0.339247	-51.1808	521.526	75.905	-0.0868276	0	-0.716295	0.255848	-2.60706	-0.379443
2.45	-62.9338	517.52	-66.9954	-0.09222130000000001	0	-0.394528	0.241632	-1.987	0.257226	-44.3288	477.759	66.325	-0.0830673	0	-0.71623	0.278738	-3.00413	-0.417049
2.46	-53.7507	466.387	-53.9885	-0.09021560000000001	0	-0.393529	0.191397	-1.66072	0.192243	-27.8021	410.344	53.4	-0.0788267	0	-0.716113	0.184321	-2.72049	-0.35403
2.47	-35.3773	392.796	-36.5852	-0.08778370000000001	0	-0.392602	0.155778	-1.72962	0.161097	-4.47872	313.743	35.66	-0.07348490000000001	0	-0.715529	0.0234601	-1.64343	-0.186792
2.48	-10.0613	289.17	-18.0924	-0.084643	0	-0.391747	0.0662288	-1.90346	0.119094	19.0712	189.251	15.4855	-0.0654531	0	-0.712859	-0.0313348	-0.310947	-0.0254433
2.49	15.6042	158.449	-3.94965	-0.0808118	0	-0.39153	-0.144578	-1.46808	0.0365948	26.337	69.66240000000001	1.78912	-0.0462261	0	-0.697284	0.217197	0.574495	0.0147546
2.5	20.6203	45.1751	1.79634	-0.0743352	0	-0.395375	-0.225792	-0.494666	-0.0196699	0	0	0	0	0	0	0	0	0
2.51	0	0	0	0	0	0	0	0	0	0	0	0	0	0	0	0	0	0
2.52	0	0	0	0	0	0	0	0	0	0	0	0	0	0	0	0	0	0
2.53	0	0	0	0	0	0	0	0	0	0	0	0	0	0	0	0	0	0
2.54	0	0	0	0	0	0	0	0	0	0	0	0	0	0	0	0	0	0
2.55	0	0	0	0	0	0	0	0	0	0	0	0	0	0	0	0	0	0
2.56	0	0	0	0	0	0	0	0	0	0	0	0	0	0	0	0	0	0
2.57	0	0	0	0	0	0	0	0	0	0	0	0	0	0	0	0	0	0
2.58	0	0	0	0	0	0	0	0	0	0	0	0	0	0	0	0	0	0
2.59	0	0	0	0	0	0	0	0	0	0	0	0	0	0	0	0	0	0
2.6	0	0	0	0	0	0	0	0	0	0	0	0	0	0	0	0	0	0
2.61	0	0	0	0	0	0	0	0	0	0	0	0	0	0	0	0	0	0
2.62	0	0	0	0	0	0	0	0	0	0	0	0	0	0	0	0	0	0
2.63	0	0	0	0	0	0	0	0	0	0	0	0	0	0	0	0	0	0
2.64	0	0	0	0	0	0	0	0	0	0	0	0	0	0	0	0	0	0
2.65	0	0	0	0	0	0	0	0	0	0	0	0	0	0	0	0	0	0
2.66	0	0	0	0	0	0	0	0	0	0	0	0	0	0	0	0	0	0
2.67	0	0	0	0	0	0	0	0	0	0	0	0	0	0	0	0	0	0
2.68	0	0	0	0	0	0	0	0	0	0	0	0	0	0	0	0	0	0
2.69	0	0	0	0	0	0	0	0	0	0	0	0	0	0	0	0	0	0
2.7	0	0	0	0	0	0	0	0	0	0	0	0	0	0	0	0	0	0
2.71	0	0	0	0	0	0	0	0	0	0	0	0	0	0	0	0	0	0
2.72	0	0	0	0	0	0	0	0	0	0	0	0	0	0	0	0	0	0
2.73	0	0	0	0	0	0	0	0	0	0	0	0	0	0	0	0	0	0
2.74	0	0	0	0	0	0	0	0	0	0	0	0	0	0	0	0	0	0
2.75	0	0	0	0	0	0	0	0	0	0	0	0	0	0	0	0	0	0
2.76	0	0	0	0	0	0	0	0	0	0	0	0	0	0	0	0	0	0
2.77	0	0	0	0	0	0	0	0	0	0	0	0	0	0	0	0	0	0
2.78	0	0	0	0	0	0	0	0	0	0	0	0	0	0	0	0	0	0
2.79	0	0	0	0	0	0	0	0	0	0	0	0	0	0	0	0	0	0
2.8	0	0	0	0	0	0	0	0	0	0	0	0	0	0	0	0	0	0
2.81	0	0	0	0	0	0	0	0	0	0	0	0	0	0	0	0	0	0
2.82	0	0	0	0	0	0	0	0	0	0	0	0	0	0	0	0	0	0
2.83	0	0	0	0	0	0	0	0	0	0	0	0	0	0	0	0	0	0
2.84	0	0	0	0	0	0	0	0	0	0	0	0	0	0	0	0	0	0
2.85	0	0	0	0	0	0	0	0	0	0	0	0	0	0	0	0	0	0
2.86	0	0	0	0	0	0	0	0	0	0	0	0	0	0	0	0	0	0
2.87	0	0	0	0	0	0	0	0	0	0	0	0	0	0	0	0	0	0
2.88	0	0	0	0	0	0	0	0	0	0	0	0	0	0	0	0	0	0
2.89	0	0	0	0	0	0	0	0	0	0	0	0	0	0	0	0	0	0
2.9	0	0	0	0	0	0	0	0	0	0	0	0	0	0	0	0	0	0
2.91	0	0	0	0	0	0	0	0	0	0	0	0	0	0	0	0	0	0
2.92	0	0	0	0	0	0	0	0	0	0	0	0	0	0	0	0	0	0
2.93	-17.0402	30.0114	-4.80247	-0.0959988	0	-0.45879	0.0653396	-0.115077	0.0184148	0	0	0	0	0	0	0	0	0
2.94	-111.487	226.172	-22.7429	-0.124106	0	-0.449072	-0.051661	0.104804	-0.0105387	0	0	0	0	0	0	0	0	0
2.95	-115.595	401.891	-48.3276	-0.138016	0	-0.447612	-0.7395350000000001	2.57114	-0.309181	0	0	0	0	0	0	0	0	0
2.96	15.9408	488.739	-77.2881	-0.151463	0	-0.443997	0.193166	5.92242	-0.936557	0	0	0	0	0	0	0	0	0
2.97	51.0658	723.571	-106.619	-0.181177	0	-0.448201	0.336844	4.77288	-0.703291	0	0	0	0	0	0	0	0	0
2.98	144.93	1281.77	-89.64409999999999	-0.237009	0	-0.462143	-0.429979	-3.80275	0.265957	0	0	0	0	0	0	0	0	0
2.99	367.241	1790.17	-22.9101	-0.269482	0	-0.472652	-2.29874	-11.2056	0.143406	0	0	0	0	0	0	0	0	0
3	322.293	1609.89	-24.8318	-0.269473	0	-0.474712	-2.76898	-13.8314	0.213342	-66.6314	95.4967	14.7975	-0.0432884	0	-0.738445	0.0890754	-0.127664	-0.0197819
